<?xml version="1.0" encoding="UTF-8"?>
<svg version="1.1" xmlns="http://www.w3.org/2000/svg" width="512" height="512">
<path d="M0 0 C21.3927979 17.53244339 34.23567977 55.78695037 37.703125 82.390625 C39.06244141 82.08318359 39.06244141 82.08318359 40.44921875 81.76953125 C42.27646484 81.36541016 42.27646484 81.36541016 44.140625 80.953125 C45.33558594 80.68628906 46.53054688 80.41945313 47.76171875 80.14453125 C77.24857013 74.17185001 110.25818626 79.03316438 135.703125 95.390625 C141.79688935 100.17596848 145.93567091 105.16426263 147.09375 113.05078125 C147.35528968 115.49755383 147.55980361 117.93439293 147.703125 120.390625 C148.57582031 120.64714844 149.44851563 120.90367188 150.34765625 121.16796875 C166.97393667 127.22620597 188.41819413 146.35684702 196.703125 162.390625 C197.05030642 165.63925112 197.22889764 167.55801344 195.46484375 170.3515625 C195.21347656 171.02445313 194.96210938 171.69734375 194.703125 172.390625 C195.86914294 174.8185801 197.01452506 176.81433932 198.515625 179.015625 C199.2723586 180.17433344 200.02887832 181.3331816 200.78515625 182.4921875 C201.73455078 183.92691406 201.73455078 183.92691406 202.703125 185.390625 C203.033125 186.050625 203.363125 186.710625 203.703125 187.390625 C204.775625 187.473125 205.848125 187.555625 206.953125 187.640625 C210.92512352 188.4350247 212.01484739 189.25098436 214.44042969 192.37011719 C217.0655726 196.57075191 218.5838473 201.23227328 220.203125 205.890625 C220.59258301 207.00211914 220.98204102 208.11361328 221.38330078 209.25878906 C225.80953732 222.21461774 229.39960797 235.07372992 230.2109375 248.7890625 C230.31985032 263.65113446 230.31985032 263.65113446 237.09643555 276.11401367 C239.35328092 277.94068071 241.67805553 279.61473399 244.09326172 281.22509766 C264.1025852 295.71167792 275.47530274 327.90961281 279.84765625 351.015625 C280.9972495 358.35070752 281.056329 365.66847274 281.015625 373.078125 C281.01346985 373.78439026 281.0113147 374.49065552 281.00909424 375.21832275 C280.83120621 411.55992155 266.65745068 442.69666262 241.578125 468.890625 C214.37630037 495.44929105 180.37780226 505.93734982 142.99708557 505.69099426 C108.76821429 505.26444143 76.53318863 489.6251593 52.703125 465.390625 C48.87823604 461.03816515 45.16702485 456.60090737 41.96505737 451.76638794 C39.90741755 449.15299324 39.90741755 449.15299324 36.88040161 448.80953979 C35.7895224 448.82969147 34.69864319 448.84984314 33.57470703 448.87060547 C31.70832077 448.88569656 31.70832077 448.88569656 29.80422974 448.90109253 C28.80670874 448.92711863 28.80670874 448.92711863 27.7890358 448.9536705 C25.67148635 449.00884035 23.55540188 449.03338489 21.43722534 449.05081177 C17.66379284 449.08696311 13.89137281 449.15024796 10.11846924 449.22216797 C3.462144 449.3484652 -3.19430693 449.44732434 -9.8515625 449.5078125 C-10.58029634 449.51461533 -11.30903019 449.52141815 -12.05984688 449.52842712 C-51.7788747 449.8142785 -100.30447657 444.64168114 -135.296875 424.390625 C-137.7263266 420.7464476 -137.45867075 418.67821228 -137.296875 414.390625 C-138.01359375 414.12765625 -138.7303125 413.8646875 -139.46875 413.59375 C-142.38193234 412.35444039 -144.86619609 410.81800888 -147.546875 409.140625 C-151.42861305 406.89410362 -151.42861305 406.89410362 -155.765625 406.5859375 C-158.02925052 407.20982063 -158.02925052 407.20982063 -160.03125 408.1328125 C-164.73068327 408.6675756 -168.80752842 404.76354943 -172.3671875 402.05078125 C-173.39217905 401.1929115 -174.41019835 400.32665722 -175.421875 399.453125 C-175.97536621 398.97713867 -176.52885742 398.50115234 -177.09912109 398.01074219 C-208.10458358 370.98931964 -227.23471125 334.50899368 -231.296875 293.390625 C-231.44582164 290.52041548 -231.48311907 287.65499197 -231.5 284.78125 C-231.50701431 283.9807019 -231.51402863 283.18015381 -231.52125549 282.35534668 C-231.53867725 279.78371504 -231.54510832 277.2123135 -231.546875 274.640625 C-231.54754974 273.76313599 -231.54822449 272.88564697 -231.54891968 271.98156738 C-231.53330685 259.22457026 -231.20006685 246.86726901 -228.296875 234.390625 C-228.12526855 233.62024902 -227.95366211 232.84987305 -227.77685547 232.05615234 C-223.6524165 213.91083237 -217.15581533 196.74041614 -208.296875 180.390625 C-207.43255859 178.78767578 -207.43255859 178.78767578 -206.55078125 177.15234375 C-200.18059884 165.80959401 -192.22283132 155.81820531 -183.296875 146.390625 C-182.04970703 145.04677734 -182.04970703 145.04677734 -180.77734375 143.67578125 C-172.4610001 134.99415165 -163.29130864 127.87960664 -152.546875 122.453125 C-149.6559611 120.79178811 -148.53213108 120.08550175 -147.453125 116.8984375 C-147.1802203 115.00384911 -146.94634664 113.10326447 -146.75 111.19921875 C-145.65891485 104.43637197 -141.18482721 99.75306842 -135.859375 95.765625 C-109.35814904 78.67826736 -75.96595702 74.24583576 -45.296875 80.390625 C-46.64339141 77.17902935 -47.99956445 73.97161366 -49.359375 70.765625 C-49.76551025 69.80519287 -50.17164551 68.84476074 -50.59008789 67.85522461 C-52.92058625 62.40460774 -55.41175982 57.16364881 -58.234375 51.953125 C-63.53716863 41.53251891 -64.58528576 30.62732716 -61.296875 19.390625 C-56.94173116 8.02157911 -49.97977612 1.02847981 -39.3515625 -4.6484375 C-26.81767453 -9.9077552 -10.87477953 -7.61974348 0 0 Z " fill="#515D75" transform="translate(231.296875,6.609375)"/>
<path d="M0 0 C21.3927979 17.53244339 34.23567977 55.78695037 37.703125 82.390625 C39.06244141 82.08318359 39.06244141 82.08318359 40.44921875 81.76953125 C42.27646484 81.36541016 42.27646484 81.36541016 44.140625 80.953125 C45.33558594 80.68628906 46.53054688 80.41945313 47.76171875 80.14453125 C77.24857013 74.17185001 110.25818626 79.03316438 135.703125 95.390625 C141.79688935 100.17596848 145.93567091 105.16426263 147.09375 113.05078125 C147.35528968 115.49755383 147.55980361 117.93439293 147.703125 120.390625 C148.57582031 120.64714844 149.44851563 120.90367188 150.34765625 121.16796875 C166.97393667 127.22620597 188.41819413 146.35684702 196.703125 162.390625 C197.04028622 165.9929265 197.14669925 167.6882991 195.203125 170.765625 C192.41114644 172.58041107 190.20071599 173.26562028 186.84765625 173.09765625 C182.21744441 171.57112011 179.57399946 167.11926073 176.703125 163.390625 C169.27690933 154.38547095 161.06834247 146.66291811 151.265625 140.328125 C150.67450928 139.94599854 150.08339355 139.56387207 149.47436523 139.17016602 C145.36492483 136.49127188 145.36492483 136.49127188 140.703125 135.390625 C138.70755236 136.37595795 138.70755236 136.37595795 136.765625 137.953125 C118.39525753 150.91160025 93.83787402 155.68626871 71.6484375 155.34765625 C70.93388901 155.33751999 70.21934052 155.32738373 69.48313904 155.31694031 C66.506594 155.27117151 63.53059183 155.22145613 60.5546875 155.14379883 C58.35666211 155.08937108 56.15946701 155.06027016 53.9609375 155.03515625 C52.6630127 155.00784424 51.36508789 154.98053223 50.02783203 154.95239258 C46.11406984 155.46826885 45.07317665 156.31430559 42.703125 159.390625 C41.3037076 161.54101689 39.96201654 163.69433126 38.640625 165.890625 C31.17452336 177.82699631 20.57151779 190.98085955 6.703125 195.390625 C-3.36063042 196.45946523 -10.28872594 194.89268464 -18.234375 188.765625 C-19.93855984 187.32682467 -21.62631232 185.86833021 -23.296875 184.390625 C-24.05097656 183.73191406 -24.80507812 183.07320312 -25.58203125 182.39453125 C-30.9307472 177.40428303 -34.89428058 171.86993265 -38.75976562 165.70678711 C-42.34838901 159.93684127 -42.34838901 159.93684127 -47.296875 155.390625 C-50.72323461 155.28128711 -53.93966783 155.73222126 -57.296875 156.390625 C-64.14449177 171.72058459 -69.56836194 186.97134229 -73.69946289 203.24951172 C-74.296875 205.390625 -74.296875 205.390625 -75.296875 207.390625 C-74.719375 207.473125 -74.141875 207.555625 -73.546875 207.640625 C-70.42924349 208.6798355 -69.28675832 209.74292901 -67.296875 212.390625 C-66.70150032 215.40065851 -66.73823204 218.33141738 -66.796875 221.390625 C-66.77367187 222.60105469 -66.77367187 222.60105469 -66.75 223.8359375 C-66.77504073 227.62960882 -66.84372027 229.74497976 -69.0625 232.90625 C-71.4073437 234.4640133 -72.76554252 234.95520283 -75.546875 235.140625 C-76.784375 235.223125 -78.021875 235.305625 -79.296875 235.390625 C-82.68414976 266.37113108 -80.64080515 299.53157709 -71.296875 329.390625 C-70.93464844 330.63714844 -70.57242188 331.88367188 -70.19921875 333.16796875 C-59.50708744 368.55965741 -38.12024971 400.19635356 -11.296875 425.390625 C-10.75804687 425.99737061 -10.21921875 426.60411621 -9.6640625 427.22924805 C-4.62093162 432.45657555 -0.5117452 433.22053802 6.6484375 433.36132812 C7.82148438 433.35037109 8.99453125 433.33941406 10.203125 433.328125 C12.00910156 433.35229492 12.00910156 433.35229492 13.8515625 433.37695312 C16.80325365 433.41209231 19.75143551 433.41581768 22.703125 433.390625 C22.703125 433.720625 22.703125 434.050625 22.703125 434.390625 C-10.79233716 434.73311439 -43.28634182 433.86072804 -76.296875 427.390625 C-77.26947266 427.20129395 -78.24207031 427.01196289 -79.24414062 426.81689453 C-94.89370582 423.67295858 -110.26692421 418.64751465 -124.89648438 412.25463867 C-128.33119788 411.01832347 -130.79137893 411.54670928 -134.296875 412.390625 C-135.9915442 413.87093841 -135.9915442 413.87093841 -137.296875 415.390625 C-138.34746094 414.71773438 -139.39804688 414.04484375 -140.48046875 413.3515625 C-147.80509435 408.39464141 -147.80509435 408.39464141 -156.1171875 406.37890625 C-158.34169469 407.00231428 -158.34169469 407.00231428 -160.20703125 408.02734375 C-163.80842197 408.65337989 -166.44372606 406.3576067 -169.296875 404.390625 C-171.40607292 402.78323371 -173.42036127 401.18133206 -175.421875 399.453125 C-175.97536621 398.97713867 -176.52885742 398.50115234 -177.09912109 398.01074219 C-208.10458358 370.98931964 -227.23471125 334.50899368 -231.296875 293.390625 C-231.44582164 290.52041548 -231.48311907 287.65499197 -231.5 284.78125 C-231.50701431 283.9807019 -231.51402863 283.18015381 -231.52125549 282.35534668 C-231.53867725 279.78371504 -231.54510832 277.2123135 -231.546875 274.640625 C-231.54754974 273.76313599 -231.54822449 272.88564697 -231.54891968 271.98156738 C-231.53330685 259.22457026 -231.20006685 246.86726901 -228.296875 234.390625 C-228.12526855 233.62024902 -227.95366211 232.84987305 -227.77685547 232.05615234 C-223.6524165 213.91083237 -217.15581533 196.74041614 -208.296875 180.390625 C-207.43255859 178.78767578 -207.43255859 178.78767578 -206.55078125 177.15234375 C-200.18059884 165.80959401 -192.22283132 155.81820531 -183.296875 146.390625 C-182.04970703 145.04677734 -182.04970703 145.04677734 -180.77734375 143.67578125 C-172.4610001 134.99415165 -163.29130864 127.87960664 -152.546875 122.453125 C-149.6559611 120.79178811 -148.53213108 120.08550175 -147.453125 116.8984375 C-147.1802203 115.00384911 -146.94634664 113.10326447 -146.75 111.19921875 C-145.65891485 104.43637197 -141.18482721 99.75306842 -135.859375 95.765625 C-109.35814904 78.67826736 -75.96595702 74.24583576 -45.296875 80.390625 C-46.64339141 77.17902935 -47.99956445 73.97161366 -49.359375 70.765625 C-49.76551025 69.80519287 -50.17164551 68.84476074 -50.59008789 67.85522461 C-52.92058625 62.40460774 -55.41175982 57.16364881 -58.234375 51.953125 C-63.53716863 41.53251891 -64.58528576 30.62732716 -61.296875 19.390625 C-56.94173116 8.02157911 -49.97977612 1.02847981 -39.3515625 -4.6484375 C-26.81767453 -9.9077552 -10.87477953 -7.61974348 0 0 Z " fill="#F7465D" transform="translate(231.296875,6.609375)"/>
<path d="M0 0 C16.27704425 4.68876051 32.50159221 21.36616331 41.98046875 34.80859375 C43.74354662 37.22747831 43.74354662 37.22747831 46.11328125 37.13671875 C46.83902344 36.98847656 47.56476563 36.84023437 48.3125 36.6875 C50.68359375 36.53515625 50.68359375 36.53515625 53 37 C56.00674293 39.94903193 57.96503188 43.33596037 60 47 C60.680625 48.11375 61.36125 49.2275 62.0625 50.375 C63 53 63 53 62.25 55.3125 C61 57 61 57 60 58 C59.60328879 63.38585896 60.53250436 67.02497845 62.6875 71.9375 C69.91614562 89.05209723 74.24459222 106.40133942 75 125 C71.06774269 123.7719258 67.34215285 122.30349336 63.59716797 120.58862305 C45.82680101 112.46898645 28.6885623 108.6207495 9.04101562 108.68432617 C7.0007633 108.68749881 4.96195131 108.66385498 2.921875 108.63867188 C-6.07106729 108.59643086 -14.28512767 109.83309634 -23 112 C-24.91592965 112.39938541 -26.83248498 112.79579692 -28.75 113.1875 C-60.50454231 121.32751619 -87.64504468 144.33698199 -104.40625 171.9140625 C-114.83952123 189.56391276 -122.07469334 209.13074758 -122.203125 229.84765625 C-122.20882507 230.58140976 -122.21452515 231.31516327 -122.22039795 232.07115173 C-122.22979221 233.61830226 -122.23635958 235.16547229 -122.24023438 236.71264648 C-122.24987371 239.03211255 -122.280922 241.35066549 -122.3125 243.66992188 C-122.43731139 261.26433258 -118.1066676 277.46513846 -110.953125 293.5390625 C-110 296 -110 296 -110 299 C-141.07278874 301.76699206 -141.07278874 301.76699206 -149.5859375 295.9296875 C-153.27994883 292.70851934 -156.3601661 289.05035453 -159.32080078 285.15429688 C-161.39952902 282.4874318 -163.71922612 280.16478945 -166.11108398 277.78198242 C-194.71372492 248.86404349 -213.43902898 207.53177763 -219.125 167.625 C-219.29676758 166.42673584 -219.46853516 165.22847168 -219.64550781 163.99389648 C-221.44102071 151.19955969 -222.0750192 138.72670453 -222.125 125.8125 C-222.12983398 124.62342041 -222.13466797 123.43434082 -222.13964844 122.20922852 C-222.10039802 102.10039802 -222.10039802 102.10039802 -220 100 C-217.42608359 99.46823602 -214.84140483 99.03569201 -212.25 98.59765625 C-211.5075 98.40042969 -210.765 98.20320313 -210 98 C-208.3092078 94.61841559 -208.73110941 90.84052188 -208.6875 87.125 C-208.65849609 86.30902344 -208.62949219 85.49304688 -208.59960938 84.65234375 C-208.52524048 79.73288469 -208.52524048 79.73288469 -210.83203125 75.4921875 C-213.01801404 73.8398922 -213.01801404 73.8398922 -216 73 C-212.742032 57.86003105 -208.37206106 43.31621272 -202.4375 29 C-202.16897217 28.32316162 -201.90044434 27.64632324 -201.6237793 26.94897461 C-200.3015743 23.88917286 -199.42239121 22.23633016 -196.47265625 20.5859375 C-193.43299368 19.86563831 -191.1148073 19.61064909 -188 20 C-183.725338 22.84058185 -181.31953952 26.28761729 -178.75 30.625 C-171.76357119 41.92004519 -161.4016328 55.40075575 -148.15625 59.58203125 C-141.28230369 60.91448099 -134.11714722 61.01191326 -127.98828125 57.3828125 C-115.86638198 48.9522578 -107.36257721 39.10068025 -99.62915039 26.62524414 C-99.18563232 25.91231201 -98.74211426 25.19937988 -98.28515625 24.46484375 C-97.69553101 23.49985962 -97.69553101 23.49985962 -97.09399414 22.51538086 C-96 21 -96 21 -94 20 C-91.77530366 19.94983145 -89.54905132 19.96410035 -87.32421875 20.0078125 C-85.93442183 20.02794786 -84.54460935 20.04702982 -83.15478516 20.06518555 C-82.42511536 20.07560883 -81.69544556 20.0860321 -80.94366455 20.09677124 C-63.30762222 20.3174305 -45.88711705 19.65450978 -29 14 C-27.90816406 13.65195313 -26.81632813 13.30390625 -25.69140625 12.9453125 C-11.83333568 8.30177023 -11.83333568 8.30177023 0 0 Z " fill="#FE6D7F" transform="translate(372,141)"/>
<path d="M0 0 C21.3927979 17.53244339 34.23567977 55.78695037 37.703125 82.390625 C39.06244141 82.08318359 39.06244141 82.08318359 40.44921875 81.76953125 C42.27646484 81.36541016 42.27646484 81.36541016 44.140625 80.953125 C45.33558594 80.68628906 46.53054688 80.41945313 47.76171875 80.14453125 C77.24857013 74.17185001 110.25818626 79.03316438 135.703125 95.390625 C141.79688935 100.17596848 145.93567091 105.16426263 147.09375 113.05078125 C147.35528968 115.49755383 147.55980361 117.93439293 147.703125 120.390625 C148.57582031 120.64714844 149.44851563 120.90367188 150.34765625 121.16796875 C166.97393667 127.22620597 188.41819413 146.35684702 196.703125 162.390625 C197.04028622 165.9929265 197.14669925 167.6882991 195.203125 170.765625 C192.41114644 172.58041107 190.20071599 173.26562028 186.84765625 173.09765625 C182.21744441 171.57112011 179.57399946 167.11926073 176.703125 163.390625 C169.27690933 154.38547095 161.06834247 146.66291811 151.265625 140.328125 C150.67450928 139.94599854 150.08339355 139.56387207 149.47436523 139.17016602 C145.36492483 136.49127188 145.36492483 136.49127188 140.703125 135.390625 C138.70755236 136.37595795 138.70755236 136.37595795 136.765625 137.953125 C118.39525753 150.91160025 93.83787402 155.68626871 71.6484375 155.34765625 C70.93388901 155.33751999 70.21934052 155.32738373 69.48313904 155.31694031 C66.506594 155.27117151 63.53059183 155.22145613 60.5546875 155.14379883 C58.35666211 155.08937108 56.15946701 155.06027016 53.9609375 155.03515625 C52.6630127 155.00784424 51.36508789 154.98053223 50.02783203 154.95239258 C46.11406984 155.46826885 45.07317665 156.31430559 42.703125 159.390625 C41.3037076 161.54101689 39.96201654 163.69433126 38.640625 165.890625 C31.17452336 177.82699631 20.57151779 190.98085955 6.703125 195.390625 C-3.36063042 196.45946523 -10.28872594 194.89268464 -18.234375 188.765625 C-19.93855984 187.32682467 -21.62631232 185.86833021 -23.296875 184.390625 C-24.05097656 183.73191406 -24.80507812 183.07320312 -25.58203125 182.39453125 C-30.9307472 177.40428303 -34.89428058 171.86993265 -38.75976562 165.70678711 C-39.14841797 165.09198486 -39.53707031 164.47718262 -39.9375 163.84375 C-40.44071777 163.02632324 -40.44071777 163.02632324 -40.95410156 162.19238281 C-44.7178811 157.04918853 -44.7178811 157.04918853 -50.46875 154.87060547 C-51.64953125 154.91588379 -52.8303125 154.96116211 -54.046875 155.0078125 C-55.01663269 155.03100052 -55.01663269 155.03100052 -56.00598145 155.05465698 C-57.38781405 155.08836676 -58.76942703 155.13240713 -60.15063477 155.18591309 C-63.77139133 155.32038892 -67.39273722 155.36186935 -71.015625 155.3984375 C-71.73238403 155.40633301 -72.44914307 155.41422852 -73.18762207 155.42236328 C-82.40787579 155.47533194 -91.28301275 154.21981025 -100.296875 152.390625 C-101.01182129 152.25140625 -101.72676758 152.1121875 -102.46337891 151.96875 C-115.12282697 149.42921828 -129.02379537 145.23886616 -138.71875 136.359375 C-140.26344139 135.19256729 -140.26344139 135.19256729 -142.21484375 135.578125 C-170.24528274 146.5168329 -189.75679696 177.1981729 -201.53369141 203.30151367 C-211.16424917 225.53533872 -215.50548599 248.62775481 -215.609375 272.765625 C-215.61783447 274.61897461 -215.61783447 274.61897461 -215.62646484 276.50976562 C-215.31962203 315.43199648 -200.63041373 351.82212749 -173.296875 379.390625 C-168.51401168 383.98676993 -163.63542694 388.16748215 -158.234375 392.015625 C-155.09092072 394.4191157 -154.38899084 395.12348906 -153.046875 399.015625 C-153.32816812 402.81308216 -153.72719702 404.5722685 -156.296875 407.390625 C-159.046875 408.453125 -159.046875 408.453125 -162.296875 408.390625 C-167.14080269 405.91737251 -171.30325706 403.00934573 -175.421875 399.453125 C-175.97536621 398.97713867 -176.52885742 398.50115234 -177.09912109 398.01074219 C-208.10458358 370.98931964 -227.23471125 334.50899368 -231.296875 293.390625 C-231.44582164 290.52041548 -231.48311907 287.65499197 -231.5 284.78125 C-231.50701431 283.9807019 -231.51402863 283.18015381 -231.52125549 282.35534668 C-231.53867725 279.78371504 -231.54510832 277.2123135 -231.546875 274.640625 C-231.54754974 273.76313599 -231.54822449 272.88564697 -231.54891968 271.98156738 C-231.53330685 259.22457026 -231.20006685 246.86726901 -228.296875 234.390625 C-228.12526855 233.62024902 -227.95366211 232.84987305 -227.77685547 232.05615234 C-223.6524165 213.91083237 -217.15581533 196.74041614 -208.296875 180.390625 C-207.43255859 178.78767578 -207.43255859 178.78767578 -206.55078125 177.15234375 C-200.18059884 165.80959401 -192.22283132 155.81820531 -183.296875 146.390625 C-182.04970703 145.04677734 -182.04970703 145.04677734 -180.77734375 143.67578125 C-172.4610001 134.99415165 -163.29130864 127.87960664 -152.546875 122.453125 C-149.6559611 120.79178811 -148.53213108 120.08550175 -147.453125 116.8984375 C-147.1802203 115.00384911 -146.94634664 113.10326447 -146.75 111.19921875 C-145.65891485 104.43637197 -141.18482721 99.75306842 -135.859375 95.765625 C-109.35814904 78.67826736 -75.96595702 74.24583576 -45.296875 80.390625 C-46.64339141 77.17902935 -47.99956445 73.97161366 -49.359375 70.765625 C-49.76551025 69.80519287 -50.17164551 68.84476074 -50.59008789 67.85522461 C-52.92058625 62.40460774 -55.41175982 57.16364881 -58.234375 51.953125 C-63.53716863 41.53251891 -64.58528576 30.62732716 -61.296875 19.390625 C-56.94173116 8.02157911 -49.97977612 1.02847981 -39.3515625 -4.6484375 C-26.81767453 -9.9077552 -10.87477953 -7.61974348 0 0 Z " fill="#010101" transform="translate(231.296875,6.609375)"/>
<path d="M0 0 C1.41345703 0.43505859 1.41345703 0.43505859 2.85546875 0.87890625 C23.13409992 7.71472127 37.85420662 21.03214044 47.8125 39.875 C56.25218398 57.93199829 58.38241509 78.83430208 52.32519531 98.15209961 C51.5968751 100.09839754 50.79885005 101.98400989 49.9375 103.875 C49.63440918 104.54990479 49.33131836 105.22480957 49.01904297 105.92016602 C39.87472743 125.52533873 24.73635296 139.18336731 4.71875 147.02734375 C3.37296875 147.50880859 3.37296875 147.50880859 2 148 C1.0409375 148.35191406 0.081875 148.70382812 -0.90625 149.06640625 C-19.48248743 154.67211426 -40.94863582 151.87411376 -58 143.125 C-63.0049331 140.17064647 -67.54291858 136.7182499 -72 133 C-72.97453125 132.22527344 -73.9490625 131.45054687 -74.953125 130.65234375 C-87.89396174 119.81905547 -96.70959548 101.54435534 -99 85 C-100.97783582 62.2455587 -95.27905459 42.01714856 -81 24 C-69.36103565 10.29319934 -52.0448235 -0.15493982 -34.06640625 -2.75390625 C-22.34707741 -3.69443837 -11.32829729 -3.49601757 0 0 Z " fill="#ECEAFD" transform="translate(402,306)"/>
<path d="M0 0 C5.19761802 4.93981616 7.18058227 10.82747954 9.5 17.5 C10.08418701 19.16724121 10.08418701 19.16724121 10.68017578 20.86816406 C15.10641232 33.82399274 18.69648297 46.68310492 19.5078125 60.3984375 C19.61672532 75.26050946 19.61672532 75.26050946 26.39331055 87.72338867 C28.65015592 89.55005571 30.97493053 91.22410899 33.39013672 92.83447266 C53.3994602 107.32105292 64.77217774 139.51898781 69.14453125 162.625 C70.2941245 169.96008252 70.353204 177.27784774 70.3125 184.6875 C70.31034485 185.39376526 70.3081897 186.10003052 70.30596924 186.82769775 C70.12808121 223.16929655 55.95432568 254.30603762 30.875 280.5 C3.67317537 307.05866605 -30.32532274 317.54672482 -67.70603943 317.30036926 C-101.93491071 316.87381643 -134.16993637 301.2345343 -158 277 C-161.82488896 272.64754015 -165.53610015 268.21028237 -168.73806763 263.37576294 C-170.79570745 260.76236824 -170.79570745 260.76236824 -173.82272339 260.41891479 C-174.9136026 260.43906647 -176.00448181 260.45921814 -177.12841797 260.47998047 C-178.99480423 260.49507156 -178.99480423 260.49507156 -180.89889526 260.51046753 C-181.56390926 260.52781826 -182.22892326 260.54516899 -182.9140892 260.5630455 C-185.03163865 260.61821535 -187.14772312 260.64275989 -189.26589966 260.66018677 C-193.03933216 260.69633811 -196.81175219 260.75962296 -200.58465576 260.83154297 C-207.240981 260.9578402 -213.89743193 261.05669934 -220.5546875 261.1171875 C-221.28342134 261.12399033 -222.01215519 261.13079315 -222.76297188 261.13780212 C-262.4819997 261.4236535 -311.00760157 256.25105614 -346 236 C-348.34549674 232.48175489 -348.57991403 231.14224306 -348 227 C-346 224.0625 -346 224.0625 -343 222 C-336.87975511 222.27550942 -331.92201695 223.96849715 -326.3125 226.3125 C-324.71087086 226.95491169 -323.10799723 227.59422918 -321.50390625 228.23046875 C-320.34205811 228.69138916 -320.34205811 228.69138916 -319.15673828 229.16162109 C-275.1467163 246.26943358 -226.38312516 245.38352667 -180 245 C-180.25692627 244.36610352 -180.51385254 243.73220703 -180.77856445 243.07910156 C-187.17599794 227.22302738 -193.0955889 212.49865525 -193.203125 195.15234375 C-193.20882507 194.41859024 -193.21452515 193.68483673 -193.22039795 192.92884827 C-193.22979221 191.38169774 -193.23635958 189.83452771 -193.24023438 188.28735352 C-193.24987371 185.96788745 -193.280922 183.64933451 -193.3125 181.33007812 C-193.37966001 171.76268469 -192.37350307 163.30653059 -190 154 C-189.59952942 152.08429688 -189.20296774 150.16776695 -188.8125 148.25 C-180.57561542 116.11757004 -156.98015146 88.55193702 -129.08984375 71.59765625 C-100.39973566 54.62820864 -63.84081412 48.14178234 -31.13671875 56.40478516 C-18.46381338 59.93501177 -6.54888498 64.70929941 5 71 C2.161635 51.41098093 -1.56969292 32.42521519 -9.65625 14.23828125 C-11.21115526 10.49114037 -11.53066007 8.01785481 -11 4 C-8.12569651 -0.48391344 -5.10219007 -0.89512106 0 0 Z M-151.125 109.1875 C-161.83344201 121.67697186 -170.79952768 138.06990687 -175 154 C-175.27714844 154.93199219 -175.55429687 155.86398437 -175.83984375 156.82421875 C-180.45305062 175.12823312 -179.9180524 196.7917688 -175 215 C-174.79503906 215.86109375 -174.59007812 216.7221875 -174.37890625 217.609375 C-169.97357421 234.35510922 -160.98107021 248.81817812 -150 262 C-149.52046875 262.61488281 -149.0409375 263.22976563 -148.546875 263.86328125 C-144.09915155 269.42293556 -138.59367168 273.64433393 -133 278 C-132.17886719 278.67160156 -131.35773438 279.34320313 -130.51171875 280.03515625 C-106.79452826 298.58841724 -76.24853087 304.32616855 -46.82080078 301.81396484 C-42.44432024 301.26480769 -38.22793426 300.22384889 -34 299 C-33.20384277 298.77425293 -32.40768555 298.54850586 -31.58740234 298.31591797 C-1.20966807 289.49106952 24.34226535 270.98386778 40.2265625 243.21875 C44.20995573 235.85305268 47.17874274 228.16760328 49.875 220.25 C50.16149414 219.41130371 50.44798828 218.57260742 50.74316406 217.70849609 C54.14592743 207.20333435 55.37221899 196.82675939 55.3125 185.8125 C55.30758545 184.72533691 55.3026709 183.63817383 55.29760742 182.51806641 C54.90000058 154.93026893 44.68645592 130.01422114 27 109 C26.16855469 107.95972656 26.16855469 107.95972656 25.3203125 106.8984375 C8.89247849 86.74104118 -16.72414116 74.10917471 -42 70 C-42.92449951 69.82871582 -43.84899902 69.65743164 -44.80151367 69.48095703 C-85.87608248 63.30456587 -123.05450116 79.59204448 -151.125 109.1875 Z " fill="#010101" transform="translate(442,195)"/>
<path d="M0 0 C9.96309601 4.18759184 19.32938908 3.28880714 29.12841797 -0.55737305 C32.5304748 -1.97668182 35.90892604 -3.44703609 39.28613281 -4.92431641 C42.82042754 -6.4155042 46.40695277 -7.65560651 50.0625 -8.8125 C51.20460938 -9.18117188 52.34671875 -9.54984375 53.5234375 -9.9296875 C74.78928568 -15.60662256 100.99065341 -15.81051282 121.6875 -7.9375 C122.42049316 -7.66454102 123.15348633 -7.39158203 123.90869141 -7.11035156 C142.06206995 -0.18836009 142.06206995 -0.18836009 145.6875 7.0625 C146.15893109 11.14823608 146.00330998 13.46731966 144.0625 17.125 C133.12701296 28.70920238 108.51106954 32.39863426 93.23461914 33.18948364 C86.66765451 33.32148995 80.10157365 33.11911791 73.53759766 32.92553711 C71.07458038 32.85891099 68.61201142 32.81720959 66.1484375 32.77734375 C65.41499115 32.74728745 64.6815448 32.71723114 63.9258728 32.68626404 C57.7188505 32.59798659 52.43069365 34.46119568 47.875 38.78125 C47.2871875 39.66296875 47.2871875 39.66296875 46.6875 40.5625 C46.20925781 41.25601563 45.73101562 41.94953125 45.23828125 42.6640625 C44.11029422 44.40860667 42.98274899 46.15343653 41.85546875 47.8984375 C27.51651936 69.90179574 27.51651936 69.90179574 15.6953125 73.703125 C11.07951443 74.25924525 8.3609369 72.42913728 4.75 69.6875 C-4.75768679 61.3719085 -15.21864212 50.34407363 -19.3125 38.0625 C-21.01019234 36.96081016 -21.01019234 36.96081016 -23.3125 36.0625 C-24.87194336 35.29377563 -24.87194336 35.29377563 -26.46289062 34.50952148 C-30.3942511 32.83209088 -34.05828501 32.7399452 -38.28125 32.91015625 C-39.82656292 32.94202212 -41.37189269 32.9730784 -42.91723633 33.00341797 C-43.71690826 33.02418396 -44.5165802 33.04494995 -45.34048462 33.06634521 C-68.73606885 33.62146432 -95.57346592 32.55383965 -115.3125 18.0625 C-117.32721597 15.04042605 -117.64969034 14.14523301 -117.75 10.6875 C-117.80994141 9.56214844 -117.80994141 9.56214844 -117.87109375 8.4140625 C-116.8960488 4.30932781 -113.9650334 2.15285002 -110.53344727 -0.11132812 C-108.50955216 -1.30590866 -106.46008424 -2.41581266 -104.375 -3.5 C-103.63008301 -3.89058594 -102.88516602 -4.28117187 -102.11767578 -4.68359375 C-71.14637185 -20.40332732 -30.27599589 -14.45833273 0 0 Z " fill="#53D17A" transform="translate(217.3125,113.9375)"/>
<path d="M0 0 C20.57322291 16.47508091 33.30741604 37.11653076 36.921875 63.33984375 C37.17799273 67.15802856 37.21047579 70.9516833 37.171875 74.77734375 C37.16220703 75.79159424 37.15253906 76.80584473 37.14257812 77.85083008 C36.75021226 102.24617802 26.9817584 122.99372069 9.921875 140.33984375 C9.17421875 141.10039062 8.4265625 141.8609375 7.65625 142.64453125 C-11.29511943 160.78011326 -34.67594982 167.04310045 -60.36328125 166.58984375 C-72.35712916 166.19223566 -83.25440421 163.64558923 -94.078125 158.33984375 C-95.42777344 157.69402344 -95.42777344 157.69402344 -96.8046875 157.03515625 C-120.01521206 145.19578205 -135.94914405 124.83122747 -144.078125 100.33984375 C-150.57305135 78.58993023 -148.02854997 54.61782349 -138.078125 34.33984375 C-137.62566406 33.40785156 -137.17320312 32.47585938 -136.70703125 31.515625 C-125.49481337 9.72928294 -105.44730442 -6.42711103 -82.26171875 -13.9453125 C-54.02635819 -22.29914664 -23.76572431 -17.64333594 0 0 Z M-112.73046875 22.546875 C-127.8688754 40.55679306 -134.07063093 61.96270792 -132.078125 85.33984375 C-130.14447639 100.00760859 -122.67970886 114.25001439 -113.078125 125.33984375 C-112.35625 126.32984375 -111.634375 127.31984375 -110.890625 128.33984375 C-100.89867889 140.05118319 -83.2417293 149.38740581 -68.078125 151.33984375 C-44.68262734 152.93740568 -22.76991397 149.30909946 -4.42651367 133.53417969 C10.11911643 120.44750565 20.84189939 102.6360941 22.08032227 82.80224609 C23.02203918 59.88513505 18.87222707 42.26089212 3.921875 24.33984375 C3.14714844 23.3653125 2.37242187 22.39078125 1.57421875 21.38671875 C-10.04359856 7.50872776 -28.51725353 -0.2335631 -46.078125 -2.66015625 C-71.72316762 -4.33385312 -94.74858717 3.68782847 -112.73046875 22.546875 Z " fill="#020202" transform="translate(435.078125,305.66015625)"/>
<path d="M0 0 C2.88102639 0.1687813 5.70821172 0.51710596 8.5625 0.9375 C9.59600586 1.07744385 9.59600586 1.07744385 10.65039062 1.22021484 C42.97691049 5.81082673 69.04605747 22.84272382 89.5625 47.9375 C108.2190969 74.34429975 115.88063933 106.41903334 110.4375 138.4375 C102.94798547 171.87905327 83.80205572 199.05670135 55.078125 217.7734375 C53.90955704 218.50013673 52.73781833 219.22176983 51.5625 219.9375 C50.52609375 220.56914062 49.4896875 221.20078125 48.421875 221.8515625 C45.5625 222.9375 45.5625 222.9375 43.16796875 222.52734375 C39.39422787 220.2246263 36.17548084 217.42913673 32.875 214.5 C32.19888672 213.91412109 31.52277344 213.32824219 30.82617188 212.72460938 C27.96204565 210.21386788 25.69232665 208.13223997 23.5625 204.9375 C24.75875 204.4425 25.955 203.9475 27.1875 203.4375 C37.90539923 198.64398287 47.77647896 192.75062263 56.5625 184.9375 C57.30886719 184.28523437 58.05523437 183.63296875 58.82421875 182.9609375 C73.94985104 168.86479851 84.62472329 147.20328625 85.6887207 126.47900391 C86.48574886 98.56024633 80.18629855 75.59070634 61.875 54.1875 C46.66035496 38.19683752 23.90869052 26.45734662 1.69140625 25.86035156 C-5.35249297 25.77283645 -12.39416733 25.82643338 -19.4375 25.9375 C-17.90064137 21.54647534 -16.20438273 17.24086128 -14.4375 12.9375 C-13.99921875 11.77089844 -13.5609375 10.60429687 -13.109375 9.40234375 C-9.99649328 2.52942858 -7.72724072 0.16633982 0 0 Z " fill="#5B6882" transform="translate(385.4375,263.0625)"/>
<path d="M0 0 C-0.20496094 0.66644531 -0.40992188 1.33289063 -0.62109375 2.01953125 C-0.89050781 2.94121094 -1.15992188 3.86289062 -1.4375 4.8125 C-1.70433594 5.70582031 -1.97117187 6.59914063 -2.24609375 7.51953125 C-4.34080098 17.1899154 -4.18635579 27.10915198 -4.18530273 36.95947266 C-4.18748301 39.23228887 -4.20569043 41.50461321 -4.22460938 43.77734375 C-4.37318231 82.08786177 9.57386203 118.55660126 34 148 C34.66 148.66 35.32 149.32 36 150 C15.45214324 153.51097833 -5.33035814 151.69440065 -23 140 C-26.10022768 137.77710225 -29.07133389 135.44319353 -32 133 C-32.97453125 132.22527344 -33.9490625 131.45054687 -34.953125 130.65234375 C-47.89396174 119.81905547 -56.70959548 101.54435534 -59 85 C-60.97783582 62.2455587 -55.27905459 42.01714856 -41 24 C-34.90709093 16.8245944 -10.90131038 -5.45065519 0 0 Z " fill="#D2D2FD" transform="translate(362,306)"/>
<path d="M0 0 C6.0213782 4.48400504 9.73882156 10.57200854 13.13671875 17.15234375 C13.55646973 17.95889404 13.9762207 18.76544434 14.40869141 19.59643555 C23.13142712 36.79717768 32.04477097 56.31910097 33.38671875 75.77734375 C31.51434504 76.74079819 29.63868885 77.69787477 27.76171875 78.65234375 C26.71757812 79.18601562 25.6734375 79.7196875 24.59765625 80.26953125 C15.88097312 84.36276688 8.81511716 85.34197014 -0.41015625 82.3046875 C-2.12950866 81.66514931 -3.84311696 81.00996649 -5.55078125 80.33984375 C-6.79444458 79.88182373 -6.79444458 79.88182373 -8.06323242 79.41455078 C-12.4568956 77.56085491 -14.94442108 76.00698805 -16.9453125 71.58984375 C-17.5255057 69.99427145 -18.08124088 68.38961177 -18.61328125 66.77734375 C-19.22586043 65.21070231 -19.84571373 63.64688649 -20.47265625 62.0859375 C-20.77993652 61.29388916 -21.0872168 60.50184082 -21.40380859 59.68579102 C-24.81845625 50.89198723 -28.59895451 42.43105817 -32.94921875 34.0625 C-36.55156797 26.95081996 -38.25912683 20.44417733 -35.9609375 12.53125 C-33.05193127 6.1264423 -28.3566251 1.41279874 -22.36328125 -2.16015625 C-14.13754435 -4.4907817 -7.61184162 -3.83822914 0 0 Z " fill="#00C454" transform="translate(220.61328125,18.22265625)"/>
<path d="M0 0 C1.22847656 -0.01998047 2.45695312 -0.03996094 3.72265625 -0.06054688 C12.57894116 -0.05580074 19.09435846 1.1078396 26 6.8125 C30.4521109 12.31216641 31.65885985 16.86791859 31.5625 23.75 C31.55492676 24.504021 31.54735352 25.25804199 31.53955078 26.03491211 C31.36560304 31.91675815 30.38843994 36.45592501 27.125 41.4375 C26.70089844 42.13101563 26.27679688 42.82453125 25.83984375 43.5390625 C21.27958713 50.32228544 14.25589763 55.84320635 6.125 57.4375 C-3.19885178 58.58033385 -10.12009437 56.74982942 -17.875 51.4375 C-24.10065468 46.09686486 -27.40219291 40.1772465 -29.875 32.4375 C-30.205 31.4475 -30.535 30.4575 -30.875 29.4375 C-31.58163022 21.7224881 -31.23939061 15.01786602 -26.875 8.4375 C-19.51087296 -0.03018498 -10.42753858 -0.0598034 0 0 Z " fill="#030102" transform="translate(230.875,220.5625)"/>
<path d="M0 0 C3.69546532 2.79490968 4.88718139 4.23035874 5.56762695 8.87231445 C5.56684203 10.36953681 5.53898147 11.86691736 5.48828125 13.36328125 C5.47766914 14.55125557 5.47766914 14.55125557 5.46684265 15.76322937 C5.43896244 18.28063389 5.376242 20.79577356 5.3125 23.3125 C5.28740861 25.0240563 5.26459691 26.73564765 5.24414062 28.44726562 C5.18915747 32.63237654 5.10293418 36.81580496 5 41 C6.10456543 40.9685791 6.10456543 40.9685791 7.23144531 40.93652344 C10.57082442 40.85332856 13.90998549 40.80132843 17.25 40.75 C18.40886719 40.71648437 19.56773437 40.68296875 20.76171875 40.6484375 C21.87675781 40.63554687 22.99179687 40.62265625 24.140625 40.609375 C25.16704102 40.58842773 26.19345703 40.56748047 27.25097656 40.54589844 C30.7380155 41.1219102 31.8834233 42.21711654 34 45 C34.5625 48.5 34.5625 48.5 34 52 C31.18374294 54.99830797 29.48807212 55.92786542 25.390625 56.53344727 C24.01076511 56.5663474 22.63021763 56.57615495 21.25 56.56640625 C20.14640137 56.57570412 20.14640137 56.57570412 19.02050781 56.58518982 C17.47071653 56.59226851 15.9208489 56.58914799 14.37109375 56.57641602 C12.00638407 56.56253747 9.6456265 56.59665431 7.28125 56.63476562 C5.77083237 56.63571685 4.26040981 56.63385784 2.75 56.62890625 C1.6966748 56.64879356 1.6966748 56.64879356 0.62207031 56.66908264 C-2.91523563 56.60233444 -4.95014525 56.03174041 -7.94506836 54.125 C-10.93235468 49.58213854 -10.70030434 45.70089441 -10.62890625 40.37109375 C-10.63131821 39.34444107 -10.63373016 38.31778839 -10.63621521 37.26002502 C-10.63523742 35.09396494 -10.62186011 32.92787966 -10.59692383 30.76196289 C-10.5625804 27.44526439 -10.57627804 24.13122528 -10.59570312 20.81445312 C-10.58880559 18.70832199 -10.57913405 16.60219772 -10.56640625 14.49609375 C-10.57136612 13.50435654 -10.57632599 12.51261932 -10.58143616 11.49082947 C-10.46438375 4.65723923 -10.46438375 4.65723923 -8.14819336 1.37915039 C-5.14464857 -0.5491397 -3.50406376 -0.64360355 0 0 Z " fill="#040405" transform="translate(383,332)"/>
<path d="M0 0 C1.00224609 -0.00064453 2.00449219 -0.00128906 3.03710938 -0.00195312 C4.07802734 0.01802734 5.11894531 0.03800781 6.19140625 0.05859375 C7.22845703 0.05150391 8.26550781 0.04441406 9.33398438 0.03710938 C19.34919176 0.12073025 19.34919176 0.12073025 22.75390625 3.49609375 C24.30575423 9.46251549 23.00529484 15.57835393 19.96484375 20.83984375 C17.43165015 24.30459886 14.78177515 26.15347078 10.75390625 27.49609375 C4.62935507 27.99810614 1.62872979 27.59537719 -3.24609375 23.49609375 C-8.15509557 18.17800844 -9.43793216 13.73742261 -9.70703125 6.6796875 C-8.6090624 1.4782927 -4.89734126 -0.00996363 0 0 Z " fill="#40525E" transform="translate(224.24609375,235.50390625)"/>
<path d="M0 0 C3.30081857 0.96300273 4.29623516 2.68917852 6.03515625 5.59375 C6.42999392 8.4272909 6.59749173 10.77826429 6.53515625 13.59375 C6.550625 14.29242188 6.56609375 14.99109375 6.58203125 15.7109375 C6.55497394 19.29603144 6.10978665 21.46925665 4.2578125 24.55859375 C1.90061452 26.71694199 1.10185835 27.25874795 -2.02734375 27.15625 C-5.96484375 26.59375 -5.96484375 26.59375 -7.6875 25.15625 C-9.66082287 21.19753501 -9.39871979 17.39134772 -9.33984375 13.03125 C-9.35144531 12.16822266 -9.36304688 11.30519531 -9.375 10.41601562 C-9.37113281 9.58650391 -9.36726563 8.75699219 -9.36328125 7.90234375 C-9.35989746 7.14751709 -9.35651367 6.39269043 -9.35302734 5.61499023 C-8.35578827 0.4224479 -4.74706825 0.21951761 0 0 Z " fill="#080304" transform="translate(307.96484375,214.40625)"/>
<path d="M0 0 C2.1875 1.46875 2.1875 1.46875 4 4 C4.58790498 7.01188241 4.55865552 9.940137 4.5 13 C4.51546875 13.80695313 4.5309375 14.61390625 4.546875 15.4453125 C4.52159961 19.2745336 4.46201833 21.35576323 2.1875 24.52734375 C-1.05723844 26.71174802 -3.18603091 26.61295932 -7 26 C-10.05774483 23.20434759 -11.24449963 20.98859774 -11.53125 16.93359375 C-11.54179492 15.43489673 -11.53086866 13.93591619 -11.5 12.4375 C-11.51546875 11.68275391 -11.5309375 10.92800781 -11.546875 10.15039062 C-11.52176226 6.58752119 -11.30426908 4.41902573 -9.1875 1.50390625 C-5.97613157 -0.70390955 -3.80211705 -0.54315958 0 0 Z " fill="#040101" transform="translate(160,215)"/>
</svg>
